<svg viewBox="0 0 1942 515.784" fill="none" xmlns="http://www.w3.org/2000/svg" x="0" y="0"><defs><filter id="filter0_i_1694_6576" x="11" y="0" width="1942" height="531.784" filterUnits="userSpaceOnUse" color-interpolation-filters="sRGB">
<feFlood flood-opacity="0" result="BackgroundImageFix"/>
<feBlend mode="normal" in="SourceGraphic" in2="BackgroundImageFix" result="shape"/>
<feColorMatrix in="SourceAlpha" type="matrix" values="0 0 0 0 0 0 0 0 0 0 0 0 0 0 0 0 0 0 127 0" result="hardAlpha"/>
<feOffset dy="16"/>
<feGaussianBlur stdDeviation="10"/>
<feComposite in2="hardAlpha" operator="arithmetic" k2="-1" k3="1"/>
<feColorMatrix type="matrix" values="0 0 0 0 0 0 0 0 0 0 0 0 0 0 0 0 0 0 0.4 0"/>
<feBlend mode="normal" in2="shape" result="effect1_innerShadow_1694_6576"/>
</filter></defs><g id="Vector" filter="url(#filter0_i_1694_6576)">
<path d="M11.00004,114.273l-0.00004,401.511h1942v-480.8889c-9.41,10.6799 -25.65,1.5957 -27.91,-6.9146c5.61,11.9957 -32.77,20.9678 -29.02,4.1711c-1.74,-16.3487 -30.66,-1.7216 -28.88,5.8369c-5.56,-1.0918 -25.71,-1.9457 -28.79,4.927c2.47,-15.215 -30.49,6.3408 -27.7,17.5526c-4.95,-5.249 -26.45,-4.3532 -28.72,-0.8399c3.7,-16.3068 -30.67,-17.3285 -30.67,-4.3951c0,-4.3391 -34.5,23.9352 -34.5,18.1404c0,0 -31.58,-13.8293 -31.58,-21.9337c0,-14.7251 -37.78,-4.1152 -37.78,0.2239c0,1.5397 -33.18,-16.8386 -33.18,-12.5414c0,8.8322 -18.85,-36.72874 -18.85,-34.27925c0,-9.82602 -30.23,24.28515 -30.23,12.51345c0,12.2336 -31.44,-15.52289 -31.44,-17.3565c0,5.31896 -28.38,12.2615 -28.38,8.31426c0,5.83684 -21.6,20.04414 -21.6,30.01014c0,-13.5353 -30.26,-1.1898 -30.26,1.9736c0,14.6551 -27.25,15.8448 -27.25,11.7297c0,-14.9071 -35.11,-6.1588 -35.11,-13.7452c0,1.0497 -22.99,18.5042 -22.99,25.5448c0,-0.6858 -30.27,8.1184 -30.27,1.9177c0,-0.4619 -32.36,8.6642 -32.36,-4.8431c0,-8.1464 -20.17,24.1032 -20.17,34.6431c0,-4.2551 -31.59,-0.8817 -31.59,-4.367c0,-7.5445 -32.51,9.112 -32.51,11.296c0,-12.4998 -17.27,-33.7617 -17.27,-29.8145c0,0.6299 -29.17,8.5244 -29.17,-2.5614c0,4.1851 -23.81,-8.2164 -23.81,-19.4702c0,10.442 -28.91,-4.3111 -28.91,2.5475c0,-14.2772 -22.05,44.7632 -22.05,24.8591c0,0.6719 -30.52,-9.5461 -30.52,-8.9582c0,-7.1806 -24,29.1282 -24,21.2478c0,-7.0966 -32.32,-22.4656 -32.32,-19.5401c0,-2.0016 -24.346,42.034 -24.346,28.8342c0,-18.3643 -28.879,11.8698 -28.879,-1.9176c0,4.8014 -28.588,-10.8479 -28.588,-1.5117c0,-3.0234 -28.806,-10.3859 -28.806,-5.8928c0,-7.8805 -30.825,25.7969 -30.825,14.9909c0,7.937 -31.421,9.154 -31.421,6.999c0,8.076 -33.309,-15.3972 -33.309,-18.5606c0,0.9658 -31.624,19.4706 -31.624,4.2552c0,-11.0578 -31.101,21.7514 -31.101,11.1974c0,-4.857 -32.816,-27.9102 -32.816,-12.0093c0,-22.9275 -29.997,20.1283 -29.997,26.2583c0,11.128 -30.607,-4.689 -30.607,-11.253c0,14.249 -30.171,19.064 -30.171,-6.103c0,-9.8821 -28.821,16.027 -28.821,14.459c0,-0.266 -30.201,-2.03 -30.201,-8.51c0,-0.812 -29.517,-11.184 -29.517,3.149c0,-7.6 -29.271,9.994 -29.271,19.694c0,0.35 -29.983,-17.636 -29.983,-14.683c0,-9.266 -29.416,-3.625 -29.416,-11.492c0,9.938 -29.532,0.364 -29.532,1.89c0,9.756 -29.605,9.182 -29.605,0.868c0,7.852 -29.068,5.221 -29.068,-5.361c0,-4.605 -30.491,16.769 -30.491,5.529c0,-2.604 -29.067,10.218 -29.067,-6.425c0,-1.288 -30.39,-3.807 -30.39,1.036c0,-1.274 -29.285,0.182 -29.285,-4.703c0,30.052 -30.476,-1.33 -30.476,5.613c0,-5.683 -27.412,-27.4209 -27.412,-25.3214c0,-18.8262 -28.53,13.7314 -31.435,22.6614c-0.436,16.643 -40.4853,-19.106 -31.813,-20.3798c-6.043,4.2272 -22.2402,-1.2178 -30.6364,8.1884c7.3213,-0.9098 -27.252,16.6004 -29.0823,12.9894c-5.215,6.327 -30.1713,-2.086 -30.7814,3.709c2.9198,1.792 -4.89524,3.975 -13.43686,5.291z" fill="currentColor"/>
</g></svg>